<svg width="366" height="236" viewBox="0 0 366 236" fill="none" xmlns="http://www.w3.org/2000/svg">
<path d="M103.678 87.4695C103.678 93.1085 102.631 98.0224 100.537 102.211C98.442 106.4 95.6226 109.864 92.1587 112.442C88.6142 115.02 84.7475 117.356 80.5586 119.37C76.3697 121.384 72.0196 123.236 67.5891 124.848C63.1585 126.539 59.0501 128.231 55.264 130.003C51.3973 131.775 48.0945 133.95 45.1945 136.689C42.2944 139.428 40.3611 142.65 39.475 146.195H103.034V169.959H4.43307V154.976C4.43307 148.128 5.64141 142.006 8.21921 136.609C10.7164 131.292 14.0192 126.942 18.1276 123.559C22.1554 120.256 26.6666 117.275 31.5805 114.697C36.4944 112.12 41.4083 109.945 46.3222 108.172C51.1556 106.4 55.6668 104.709 59.7751 102.936C63.8029 101.164 67.1057 99.1502 69.6835 96.814C72.1808 94.4779 73.4697 91.8196 73.4697 88.839C73.4697 80.5417 67.6696 76.3528 56.1501 76.3528C50.0278 76.3528 45.1139 77.5611 41.3278 79.9778C37.5416 82.3945 35.6888 86.2612 35.7694 91.5779H5.72197C5.72197 78.6084 9.83033 68.7 18.1276 61.7721C26.3443 54.9249 38.5083 51.4609 54.6195 51.4609C70.4085 51.4609 82.4919 54.6026 90.9503 60.8055C99.4087 67.0888 103.678 75.95 103.678 87.4695ZM193.788 124.042H210.302V147.806H193.788V169.959H162.855V147.806H101.632V124.042L157.457 54.4415H193.788V124.042ZM129.827 124.042H162.855V82.6362L129.827 124.042Z" fill="url(#paint0_linear_147_11889)"/>
<path d="M12.5239 67.7686C18.4303 58.9575 40.4678 44.24 81.367 55.859" stroke="url(#paint1_linear_147_11889)" stroke-width="1.74286"/>
<g style="mix-blend-mode:screen" clip-path="url(#clip0_147_11889)">
<path d="M195.307 80.683L199.747 88.8274C201.987 87.5925 204.26 86.4267 206.566 85.33L201.854 76.6855L195.307 80.683Z" fill="#8440FF"/>
<path d="M195.344 81.7662L195.752 81.5347L196.161 81.3032L201.876 77.9945L202.285 77.763L202.693 77.5314L203.539 77.0429C203.777 76.9045 203.951 76.6777 204.022 76.412C204.093 76.1464 204.056 75.8634 203.919 75.6247L202.902 73.8616C202.764 73.6232 202.537 73.4492 202.271 73.3776C202.005 73.306 201.721 73.3427 201.482 73.4795L192.441 78.6891C192.203 78.8273 192.029 79.054 191.958 79.3197C191.887 79.5854 191.923 79.8685 192.06 80.1073L193.078 81.8693C193.216 82.1071 193.443 82.2806 193.709 82.352C193.975 82.4233 194.258 82.3867 194.497 82.2501L195.344 81.7662Z" fill="#9F69FF"/>
<path d="M287.964 80.683L283.525 88.8274C281.285 87.5925 279.012 86.4267 276.706 85.33L281.418 76.6855L287.964 80.683Z" fill="#8440FF"/>
<path d="M287.93 81.7662L287.521 81.5347L287.112 81.3031L281.398 77.9945L280.989 77.7629L280.58 77.5314L279.734 77.0429C279.496 76.9046 279.323 76.678 279.251 76.4123C279.18 76.1466 279.216 75.8635 279.353 75.6247L280.371 73.8615C280.509 73.6235 280.736 73.4497 281.002 73.3782C281.268 73.3066 281.551 73.343 281.79 73.4795L290.832 78.6891C291.07 78.8275 291.244 79.0543 291.315 79.3199C291.386 79.5856 291.349 79.8686 291.212 80.1073L290.194 81.8693C290.056 82.1071 289.829 82.2806 289.563 82.352C289.297 82.4233 289.014 82.3867 288.775 82.2501L287.93 81.7662Z" fill="#9F69FF"/>
<path d="M235.625 74.8685C239.602 74.4455 243.612 74.4455 247.589 74.8685V67.8506H235.625V74.8685Z" fill="#8440FF"/>
<path d="M235.297 69.0214H248.892C249.166 69.0214 249.429 68.9126 249.623 68.7189C249.816 68.5252 249.925 68.2626 249.925 67.9887V63.1669C249.925 62.8931 249.816 62.6304 249.623 62.4367C249.429 62.2431 249.166 62.1343 248.892 62.1343H234.322C234.186 62.1341 234.052 62.1607 233.926 62.2126C233.801 62.2644 233.687 62.3404 233.591 62.4363C233.495 62.5322 233.418 62.6461 233.366 62.7715C233.314 62.8968 233.288 63.0312 233.288 63.1669V67.9887C233.288 68.1244 233.314 68.2588 233.366 68.3841C233.418 68.5095 233.495 68.6234 233.591 68.7193C233.687 68.8152 233.801 68.8913 233.926 68.9431C234.052 68.9949 234.186 69.0215 234.322 69.0214H235.297Z" fill="#9F69FF"/>
<path d="M200.957 173.149L190.864 178.973C191.661 180.312 192.51 181.615 193.412 182.883L202.841 176.037C202.177 175.099 201.549 174.137 200.957 173.149Z" fill="#E4FFD5"/>
<path d="M281.602 124.918L291.696 119.092C290.897 117.754 290.048 116.451 289.147 115.183L279.719 122.028C280.381 122.967 281.008 123.93 281.602 124.918Z" fill="#AF82FF"/>
<path d="M278.854 120.84L288.282 113.998C287.351 112.752 286.371 111.544 285.342 110.376L276.682 118.166C277.439 119.029 278.163 119.92 278.854 120.84Z" fill="#AF82FF"/>
<path d="M198.652 168.807L188.004 173.544C188.658 174.961 189.365 176.346 190.127 177.7L200.224 171.876C199.663 170.877 199.139 169.854 198.652 168.807Z" fill="#E4FFD5"/>
<path d="M195.475 159.517L184.071 161.938C184.414 163.464 184.818 164.965 185.281 166.442L196.368 162.841C196.028 161.752 195.731 160.643 195.475 159.517Z" fill="#E4FFD5"/>
<path d="M242.016 102.084C243.175 102.102 244.322 102.161 245.459 102.261L246.675 90.6773C245.139 90.5376 243.585 90.4574 242.014 90.4365L242.016 102.084Z" fill="#AF82FF"/>
<path d="M275.697 117.071L284.357 109.278C283.301 108.136 282.201 107.037 281.057 105.98L273.26 114.634C274.103 115.417 274.915 116.229 275.697 117.071Z" fill="#AF82FF"/>
<path d="M196.817 164.242L185.731 167.841C186.233 169.321 186.791 170.773 187.406 172.197L198.054 167.459C197.603 166.408 197.191 165.336 196.817 164.242Z" fill="#E4FFD5"/>
<path d="M287.928 143.393L299.519 142.177C299.337 140.621 299.095 139.084 298.794 137.568L287.393 139.99C287.612 141.108 287.791 142.243 287.928 143.393Z" fill="#AF82FF"/>
<path d="M194.632 154.673L183.042 155.891C183.222 157.445 183.464 158.981 183.767 160.499L195.167 158.078C194.949 156.955 194.77 155.821 194.632 154.673Z" fill="#E4FFD5"/>
<path d="M214.259 187.453L207.405 196.875C208.674 197.773 209.978 198.622 211.318 199.422L217.145 189.334C216.16 188.74 215.198 188.113 214.259 187.453Z" fill="#E4FFD5"/>
<path d="M287.089 138.55L298.489 136.129C298.146 134.603 297.745 133.101 297.284 131.621L286.198 135.222C286.534 136.314 286.831 137.424 287.089 138.55Z" fill="#AF82FF"/>
<path d="M218.424 190.069L212.596 200.156C213.949 200.916 215.335 201.623 216.754 202.277L221.495 191.636C220.45 191.151 219.426 190.629 218.424 190.069Z" fill="#E4FFD5"/>
<path d="M285.743 133.822L296.83 130.221C296.329 128.742 295.771 127.29 295.155 125.866L284.506 130.605C284.957 131.658 285.37 132.731 285.743 133.822Z" fill="#AF82FF"/>
<path d="M283.906 129.261L294.554 124.522C293.9 123.106 293.192 121.721 292.429 120.366L282.336 126.191C282.896 127.192 283.42 128.215 283.906 129.261Z" fill="#AF82FF"/>
<path d="M206.86 180.996L198.202 188.785C199.257 189.928 200.356 191.027 201.501 192.083L209.298 183.428C208.457 182.65 207.644 181.839 206.86 180.996Z" fill="#E4FFD5"/>
<path d="M203.7 177.227L194.272 184.073C195.205 185.32 196.185 186.527 197.212 187.696L205.872 179.903C205.119 179.039 204.395 178.147 203.7 177.227Z" fill="#E4FFD5"/>
<path d="M210.393 184.417L202.596 193.068C203.764 194.094 204.972 195.073 206.221 196.007L213.071 186.585C212.152 185.895 211.26 185.172 210.393 184.417Z" fill="#E4FFD5"/>
<path d="M252.752 91.5548C251.235 91.2538 249.698 91.0122 248.141 90.8301L246.922 102.414C248.071 102.55 249.207 102.728 250.329 102.948L252.752 91.5548Z" fill="#AF82FF"/>
<path d="M209.298 114.634L201.499 105.98C200.357 107.036 199.257 108.135 198.2 109.278L206.858 117.071C207.643 116.23 208.456 115.418 209.298 114.634Z" fill="#E4FFD5"/>
<path d="M217.149 108.736L211.322 98.6475C209.983 99.4455 208.678 100.294 207.409 101.194L214.259 110.618C215.198 109.955 216.161 109.328 217.149 108.736Z" fill="#E4FFD5"/>
<path d="M202.839 122.029L193.41 115.184C192.513 116.451 191.663 117.754 190.862 119.094L200.955 124.918C201.549 123.932 202.178 122.969 202.839 122.029Z" fill="#E4FFD5"/>
<path d="M205.876 118.166L197.212 110.372C196.188 111.539 195.21 112.748 194.276 113.999L203.699 120.841C204.394 119.921 205.12 119.03 205.876 118.166Z" fill="#E4FFD5"/>
<path d="M213.069 111.481L206.219 102.057C204.972 102.989 203.763 103.968 202.594 104.995L210.391 113.651C211.258 112.896 212.15 112.172 213.069 111.481Z" fill="#E4FFD5"/>
<path d="M221.495 106.431L216.754 95.7891C215.337 96.442 213.951 97.149 212.596 97.9099L218.424 107.998C219.425 107.438 220.448 106.916 221.495 106.431Z" fill="#E4FFD5"/>
<path d="M229.807 91.5548L232.23 102.948C233.352 102.73 234.487 102.552 235.636 102.414L234.417 90.8301C232.858 91.0107 231.321 91.2522 229.807 91.5548Z" fill="#E4FFD5"/>
<path d="M230.789 103.252L228.372 91.8594C226.841 92.2021 225.335 92.603 223.854 93.0622L227.455 104.142C228.551 103.807 229.662 103.51 230.789 103.252Z" fill="#E4FFD5"/>
<path d="M226.056 104.597L222.454 93.5166C220.974 94.0183 219.521 94.5763 218.096 95.1906L222.837 105.832C223.893 105.382 224.966 104.97 226.056 104.597Z" fill="#E4FFD5"/>
<path d="M196.362 135.222L185.281 131.621C184.818 133.099 184.416 134.602 184.077 136.129L195.475 138.55C195.73 137.425 196.026 136.315 196.362 135.222Z" fill="#E4FFD5"/>
<path d="M264.136 107.999L269.958 97.907C268.605 97.1476 267.219 96.4406 265.8 95.7861L261.059 106.428C262.109 106.916 263.134 107.44 264.136 107.999Z" fill="#AF82FF"/>
<path d="M194.477 144.857L182.888 143.636C182.747 145.172 182.667 146.724 182.647 148.293H194.3C194.319 147.139 194.378 145.993 194.477 144.857Z" fill="#E4FFD5"/>
<path d="M288.26 148.298H299.913C299.894 146.73 299.814 145.178 299.672 143.64L288.088 144.857C288.182 145.993 288.24 147.14 288.26 148.298Z" fill="#AF82FF"/>
<path d="M200.224 126.192L190.127 120.366C189.367 121.721 188.66 123.106 188.004 124.522L198.652 129.261C199.139 128.216 199.663 127.193 200.224 126.192Z" fill="#E4FFD5"/>
<path d="M237.101 102.261C238.237 102.16 239.384 102.101 240.543 102.084V90.4365C238.973 90.4558 237.42 90.5361 235.883 90.6773L237.101 102.261Z" fill="#E4FFD5"/>
<path d="M198.054 130.605L187.406 125.866C186.792 127.29 186.234 128.742 185.731 130.221L196.817 133.822C197.191 132.73 197.603 131.657 198.054 130.605Z" fill="#E4FFD5"/>
<path d="M194.3 149.771H182.647C182.666 151.34 182.747 152.893 182.888 154.43L194.472 153.212C194.376 152.076 194.319 150.929 194.3 149.771Z" fill="#E4FFD5"/>
<path d="M195.167 139.99L183.767 137.568C183.467 139.083 183.225 140.619 183.042 142.177L194.632 143.393C194.77 142.243 194.949 141.108 195.167 139.99Z" fill="#E4FFD5"/>
<path d="M251.772 194.814L254.195 206.208C255.722 205.865 257.226 205.464 258.706 205.004L255.103 193.924C254.008 194.26 252.897 194.557 251.772 194.814Z" fill="#AF82FF"/>
<path d="M222.839 192.235L218.098 202.877C219.523 203.494 220.976 204.052 222.456 204.551L226.058 193.471C224.966 193.097 223.893 192.685 222.839 192.235Z" fill="#E4FFD5"/>
<path d="M279.721 176.037L289.149 182.883C290.048 181.617 290.897 180.314 291.698 178.974L281.605 173.149C281.011 174.136 280.383 175.098 279.721 176.037Z" fill="#AF82FF"/>
<path d="M261.063 191.636L265.804 202.277C267.222 201.624 268.608 200.917 269.962 200.156L264.135 190.069C263.133 190.627 262.109 191.149 261.063 191.636Z" fill="#AF82FF"/>
<path d="M265.409 189.331L271.236 199.42C272.577 198.622 273.881 197.773 275.149 196.873L268.299 187.45C267.361 188.109 266.397 188.736 265.409 189.331Z" fill="#AF82FF"/>
<path d="M273.26 183.432L281.057 192.087C282.201 191.031 283.301 189.932 284.357 188.788L275.697 180.996C274.916 181.838 274.104 182.65 273.26 183.432Z" fill="#AF82FF"/>
<path d="M272.167 113.652L279.965 104.997C278.796 103.971 277.588 102.992 276.341 102.059L269.495 111.481C270.411 112.171 271.301 112.895 272.167 113.652Z" fill="#AF82FF"/>
<path d="M269.495 186.586L276.345 196.009C277.592 195.077 278.801 194.097 279.97 193.071L272.172 184.416C271.304 185.172 270.411 185.895 269.495 186.586Z" fill="#AF82FF"/>
<path d="M282.338 171.876L292.429 177.7C293.19 176.346 293.898 174.961 294.551 173.544L283.903 168.807C283.42 169.854 282.898 170.877 282.338 171.876Z" fill="#AF82FF"/>
<path d="M259.72 105.832L264.46 95.1906C263.036 94.577 261.584 94.019 260.102 93.5166L256.5 104.597C257.595 104.97 258.668 105.381 259.72 105.832Z" fill="#AF82FF"/>
<path d="M288.081 153.209L299.664 154.427C299.805 152.891 299.885 151.338 299.905 149.769H288.26C288.24 150.928 288.18 152.075 288.081 153.209Z" fill="#AF82FF"/>
<path d="M284.506 167.463L295.155 172.2C295.769 170.778 296.327 169.326 296.83 167.845L285.743 164.242C285.37 165.335 284.957 166.409 284.506 167.463Z" fill="#AF82FF"/>
<path d="M287.393 158.078L298.794 160.499C299.095 158.983 299.337 157.447 299.519 155.891L287.928 154.673C287.791 155.821 287.612 156.956 287.393 158.078Z" fill="#AF82FF"/>
<path d="M255.101 104.142L258.704 93.0622C257.225 92.6038 255.721 92.2028 254.193 91.8594L251.772 103.252C252.896 103.509 254.006 103.806 255.101 104.142Z" fill="#AF82FF"/>
<path d="M268.299 110.615L275.149 101.191C273.881 100.295 272.577 99.4457 271.236 98.6445L265.409 108.733C266.397 109.326 267.361 109.954 268.299 110.615Z" fill="#AF82FF"/>
<path d="M286.198 162.846L297.284 166.442C297.748 164.964 298.149 163.461 298.489 161.934L287.089 159.512C286.831 160.64 286.534 161.751 286.198 162.846Z" fill="#AF82FF"/>
<path d="M276.682 179.903L285.342 187.696C286.37 186.528 287.35 185.32 288.282 184.073L278.854 177.227C278.163 178.146 277.439 179.038 276.682 179.903Z" fill="#AF82FF"/>
<path d="M246.922 195.654L248.141 207.238C249.698 207.056 251.235 206.814 252.752 206.513L250.329 195.119C249.206 195.338 248.07 195.516 246.922 195.654Z" fill="#AF82FF"/>
<path d="M235.883 207.389C237.42 207.53 238.973 207.61 240.543 207.63V195.984C239.385 195.966 238.237 195.907 237.101 195.807L235.883 207.389Z" fill="#E4FFD5"/>
<path d="M229.807 206.513C231.324 206.814 232.861 207.056 234.417 207.238L235.636 195.654C234.488 195.517 233.352 195.338 232.23 195.119L229.807 206.513Z" fill="#E4FFD5"/>
<path d="M227.458 193.924L223.854 205.004C225.333 205.467 226.836 205.868 228.364 206.208L230.787 194.814C229.662 194.558 228.553 194.261 227.458 193.924Z" fill="#E4FFD5"/>
<path d="M256.5 193.471L260.102 204.551C261.582 204.049 263.035 203.491 264.46 202.877L259.72 192.235C258.668 192.685 257.595 193.096 256.5 193.471Z" fill="#AF82FF"/>
<path d="M242.014 195.984V207.63C243.584 207.612 245.138 207.531 246.675 207.389L245.457 195.812C244.321 195.908 243.173 195.965 242.014 195.984Z" fill="#AF82FF"/>
<ellipse cx="241.28" cy="149.536" rx="75.543" ry="75.5073" fill="#A96FFD"/>
<ellipse cx="240.378" cy="149.716" rx="11.1782" ry="11.1729" fill="#E4E4E4"/>
<g filter="url(#filter0_d_147_11889)">
<path d="M263.996 121.131C265.278 119.799 267.367 121.513 266.308 123.029L245.552 152.757L238.936 147.18L263.996 121.131Z" fill="#E4E4E4"/>
</g>
</g>
<g filter="url(#filter1_f_147_11889)">
<ellipse cx="241.28" cy="133.884" rx="74.5" ry="30.75" fill="#B18EEF"/>
</g>
<g filter="url(#filter2_d_147_11889)">
<path d="M264.127 120.329C265.409 118.996 267.497 120.711 266.439 122.227L245.682 151.954L239.067 146.378L264.127 120.329Z" fill="white" fill-opacity="0.37" shape-rendering="crispEdges"/>
</g>
<path d="M201.089 172.348L190.997 178.171C191.794 179.51 192.643 180.813 193.545 182.081L202.974 175.235C202.31 174.297 201.682 173.335 201.089 172.348Z" fill="white" fill-opacity="0.37"/>
<path d="M281.732 124.116L291.826 118.29C291.028 116.952 290.178 115.649 289.278 114.381L279.85 121.226C280.512 122.165 281.139 123.128 281.732 124.116Z" fill="#B185FF"/>
<path d="M278.987 120.039L288.415 113.197C287.483 111.95 286.504 110.743 285.475 109.574L276.815 117.364C277.572 118.227 278.296 119.119 278.987 120.039Z" fill="#B185FF"/>
<path d="M198.783 168.005L188.135 172.742C188.789 174.159 189.496 175.545 190.257 176.898L200.355 171.074C199.793 170.075 199.269 169.052 198.783 168.005Z" fill="white" fill-opacity="0.37"/>
<path d="M195.606 158.715L184.202 161.137C184.545 162.663 184.949 164.164 185.412 165.64L196.499 162.04C196.159 160.95 195.861 159.842 195.606 158.715Z" fill="white" fill-opacity="0.37"/>
<path d="M242.147 101.282C243.306 101.3 244.453 101.359 245.59 101.459L246.806 89.8751C245.27 89.7354 243.716 89.6551 242.145 89.6343L242.147 101.282Z" fill="#DDC4FB"/>
<path d="M275.83 116.269L284.49 108.476C283.434 107.334 282.334 106.235 281.19 105.179L273.393 113.832C274.236 114.615 275.048 115.427 275.83 116.269Z" fill="#B185FF"/>
<path d="M196.947 163.44L185.862 167.04C186.364 168.519 186.922 169.971 187.537 171.395L198.185 166.658C197.734 165.606 197.322 164.534 196.947 163.44Z" fill="white" fill-opacity="0.37"/>
<path d="M288.059 142.592L299.65 141.375C299.467 139.819 299.226 138.283 298.925 136.766L287.524 139.188C287.743 140.306 287.922 141.441 288.059 142.592Z" fill="#B185FF"/>
<path d="M194.763 153.871L183.172 155.089C183.353 156.643 183.595 158.18 183.897 159.698L195.298 157.276C195.08 156.154 194.901 155.019 194.763 153.871Z" fill="white" fill-opacity="0.37"/>
<path d="M214.392 186.65L207.538 196.073C208.806 196.971 210.111 197.82 211.451 198.62L217.278 188.532C216.293 187.938 215.331 187.311 214.392 186.65Z" fill="white" fill-opacity="0.37"/>
<path d="M287.219 137.748L298.62 135.327C298.277 133.801 297.876 132.298 297.415 130.819L286.329 134.419C286.665 135.512 286.962 136.622 287.219 137.748Z" fill="#B185FF"/>
<path d="M218.557 189.267L212.729 199.354C214.082 200.114 215.468 200.821 216.886 201.475L221.628 190.833C220.583 190.349 219.559 189.827 218.557 189.267Z" fill="white" fill-opacity="0.37"/>
<path d="M285.874 133.02L296.961 129.419C296.46 127.94 295.902 126.488 295.286 125.064L284.637 129.802C285.088 130.856 285.501 131.928 285.874 133.02Z" fill="#B185FF"/>
<path d="M284.039 128.458L294.687 123.72C294.033 122.304 293.325 120.918 292.562 119.564L282.469 125.388C283.029 126.389 283.552 127.413 284.039 128.458Z" fill="#B185FF"/>
<path d="M206.991 180.194L198.333 187.983C199.387 189.126 200.487 190.226 201.632 191.281L209.429 182.627C208.588 181.848 207.775 181.037 206.991 180.194Z" fill="white" fill-opacity="0.37"/>
<path d="M203.831 176.425L194.403 183.271C195.336 184.518 196.316 185.725 197.343 186.894L206.003 179.101C205.25 178.237 204.526 177.345 203.831 176.425Z" fill="white" fill-opacity="0.37"/>
<path d="M210.524 183.615L202.727 192.267C203.895 193.292 205.103 194.272 206.352 195.205L213.202 185.784C212.283 185.093 211.39 184.37 210.524 183.615Z" fill="white" fill-opacity="0.37"/>
<path d="M252.883 90.7525C251.366 90.4515 249.829 90.21 248.272 90.0278L247.053 101.612C248.202 101.748 249.338 101.926 250.46 102.145L252.883 90.7525Z" fill="#DDC4FB"/>
<path d="M209.429 113.832L201.63 105.179C200.487 106.234 199.388 107.333 198.331 108.476L206.989 116.269C207.774 115.428 208.587 114.616 209.429 113.832Z" fill="white" fill-opacity="0.37"/>
<path d="M217.282 107.934L211.454 97.8457C210.115 98.6437 208.811 99.4927 207.542 100.393L214.392 109.816C215.33 109.153 216.294 108.526 217.282 107.934Z" fill="white" fill-opacity="0.37"/>
<path d="M202.97 121.227L193.541 114.382C192.644 115.648 191.794 116.952 190.993 118.291L201.086 124.116C201.68 123.129 202.308 122.167 202.97 121.227Z" fill="white" fill-opacity="0.37"/>
<path d="M206.007 117.364L197.343 109.569C196.319 110.736 195.34 111.945 194.407 113.196L203.83 120.038C204.525 119.119 205.251 118.228 206.007 117.364Z" fill="white" fill-opacity="0.37"/>
<path d="M213.202 110.678L206.352 101.255C205.104 102.186 203.896 103.166 202.727 104.193L210.524 112.849C211.39 112.094 212.283 111.37 213.202 110.678Z" fill="white" fill-opacity="0.37"/>
<path d="M221.628 105.629L216.886 94.9873C215.469 95.6402 214.084 96.3472 212.729 97.1082L218.557 107.196C219.558 106.637 220.581 106.114 221.628 105.629Z" fill="white" fill-opacity="0.37"/>
<path d="M229.94 90.7525L232.363 102.145C233.485 101.928 234.62 101.75 235.769 101.612L234.55 90.0278C232.991 90.2084 231.454 90.45 229.94 90.7525Z" fill="white" fill-opacity="0.37"/>
<path d="M230.922 102.45L228.504 91.0571C226.974 91.3998 225.468 91.8007 223.987 92.26L227.588 103.34C228.684 103.004 229.795 102.708 230.922 102.45Z" fill="white" fill-opacity="0.37"/>
<path d="M226.187 103.795L222.585 92.7148C221.104 93.2165 219.652 93.7745 218.227 94.3889L222.968 105.03C224.024 104.58 225.097 104.169 226.187 103.795Z" fill="white" fill-opacity="0.37"/>
<path d="M196.493 134.419L185.412 130.819C184.949 132.297 184.547 133.8 184.208 135.327L195.606 137.748C195.861 136.622 196.156 135.513 196.493 134.419Z" fill="white" fill-opacity="0.37"/>
<path d="M264.267 107.196L270.089 97.1048C268.736 96.3453 267.35 95.6384 265.931 94.9839L261.19 105.625C262.239 106.114 263.265 106.638 264.267 107.196Z" fill="#DDC4FB"/>
<path d="M194.61 144.055L183.021 142.833C182.88 144.369 182.8 145.922 182.78 147.491H194.433C194.451 146.336 194.511 145.191 194.61 144.055Z" fill="white" fill-opacity="0.37"/>
<path d="M288.393 147.495H300.046C300.027 145.928 299.947 144.375 299.805 142.838L288.221 144.055C288.315 145.191 288.373 146.338 288.393 147.495Z" fill="#B185FF"/>
<path d="M200.355 125.389L190.257 119.564C189.498 120.918 188.791 122.304 188.135 123.72L198.783 128.458C199.269 127.414 199.793 126.391 200.355 125.389Z" fill="white" fill-opacity="0.37"/>
<path d="M237.232 101.459C238.368 101.358 239.515 101.299 240.674 101.282V89.6343C239.104 89.6536 237.551 89.7338 236.014 89.8751L237.232 101.459Z" fill="white" fill-opacity="0.37"/>
<path d="M198.185 129.802L187.537 125.064C186.923 126.488 186.365 127.94 185.862 129.419L196.947 133.02C197.322 131.927 197.734 130.855 198.185 129.802Z" fill="white" fill-opacity="0.37"/>
<path d="M194.433 148.969H182.78C182.799 150.538 182.879 152.09 183.021 153.628L194.604 152.41C194.509 151.274 194.451 150.127 194.433 148.969Z" fill="white" fill-opacity="0.37"/>
<path d="M195.298 139.188L183.897 136.766C183.598 138.281 183.356 139.817 183.172 141.375L194.763 142.592C194.901 141.441 195.08 140.306 195.298 139.188Z" fill="white" fill-opacity="0.37"/>
<path d="M251.903 194.012L254.326 205.406C255.853 205.064 257.356 204.662 258.837 204.202L255.234 193.122C254.138 193.459 253.028 193.755 251.903 194.012Z" fill="#B185FF"/>
<path d="M222.972 191.433L218.231 202.075C219.656 202.692 221.108 203.25 222.589 203.749L226.191 192.668C225.099 192.295 224.026 191.883 222.972 191.433Z" fill="white" fill-opacity="0.37"/>
<path d="M279.854 175.235L289.282 182.081C290.181 180.815 291.03 179.512 291.83 178.172L281.738 172.348C281.144 173.334 280.516 174.296 279.854 175.235Z" fill="#B185FF"/>
<path d="M261.196 190.833L265.937 201.475C267.355 200.822 268.741 200.115 270.094 199.354L264.268 189.267C263.266 189.825 262.242 190.347 261.196 190.833Z" fill="#B185FF"/>
<path d="M265.542 188.53L271.369 198.618C272.71 197.82 274.014 196.972 275.282 196.071L268.432 186.648C267.493 187.307 266.53 187.934 265.542 188.53Z" fill="#B185FF"/>
<path d="M273.393 182.63L281.19 191.285C282.334 190.229 283.434 189.13 284.49 187.987L275.83 180.194C275.049 181.036 274.236 181.848 273.393 182.63Z" fill="#B185FF"/>
<path d="M272.298 112.849L280.096 104.195C278.927 103.169 277.719 102.189 276.471 101.256L269.625 110.679C270.541 111.369 271.432 112.092 272.298 112.849Z" fill="#DDC4FB"/>
<path d="M269.625 185.784L276.476 195.207C277.723 194.275 278.931 193.296 280.101 192.269L272.302 183.614C271.434 184.37 270.542 185.093 269.625 185.784Z" fill="#B185FF"/>
<path d="M282.471 171.074L292.562 176.898C293.323 175.545 294.031 174.159 294.684 172.742L284.036 168.005C283.553 169.052 283.031 170.075 282.471 171.074Z" fill="#B185FF"/>
<path d="M259.852 105.03L264.592 94.3889C263.169 93.7753 261.717 93.2173 260.235 92.7148L256.633 103.795C257.728 104.168 258.801 104.58 259.852 105.03Z" fill="#DDC4FB"/>
<path d="M288.211 152.407L299.795 153.625C299.936 152.089 300.016 150.537 300.036 148.967H288.391C288.371 150.126 288.311 151.273 288.211 152.407Z" fill="#B185FF"/>
<path d="M284.637 166.661L295.286 171.398C295.9 169.976 296.458 168.524 296.961 167.043L285.874 163.44C285.501 164.533 285.088 165.607 284.637 166.661Z" fill="#B185FF"/>
<path d="M287.524 157.276L298.925 159.698C299.226 158.181 299.467 156.645 299.65 155.089L288.059 153.871C287.922 155.02 287.743 156.154 287.524 157.276Z" fill="#B185FF"/>
<path d="M255.232 103.34L258.834 92.26C257.356 91.8015 255.852 91.4006 254.324 91.0571L251.903 102.45C253.027 102.707 254.137 103.004 255.232 103.34Z" fill="#DDC4FB"/>
<path d="M268.432 109.813L275.282 100.389C274.014 99.4924 272.71 98.6434 271.369 97.8423L265.542 107.93C266.53 108.524 267.493 109.151 268.432 109.813Z" fill="#DDC4FB"/>
<path d="M286.329 162.044L297.415 165.64C297.879 164.162 298.28 162.659 298.62 161.132L287.219 158.71C286.962 159.838 286.665 160.95 286.329 162.044Z" fill="#B185FF"/>
<path d="M276.815 179.101L285.475 186.894C286.503 185.726 287.483 184.519 288.415 183.271L278.987 176.425C278.296 177.344 277.572 178.236 276.815 179.101Z" fill="#B185FF"/>
<path d="M247.053 194.852L248.272 206.436C249.829 206.253 251.366 206.012 252.883 205.711L250.46 194.317C249.336 194.535 248.201 194.714 247.053 194.852Z" fill="#B185FF"/>
<path d="M236.014 206.588C237.551 206.728 239.104 206.808 240.674 206.828V195.182C239.516 195.164 238.368 195.105 237.232 195.005L236.014 206.588Z" fill="white" fill-opacity="0.37"/>
<path d="M229.94 205.711C231.457 206.012 232.993 206.253 234.55 206.436L235.769 194.852C234.621 194.714 233.485 194.536 232.363 194.317L229.94 205.711Z" fill="white" fill-opacity="0.37"/>
<path d="M227.59 193.122L223.987 204.202C225.466 204.665 226.969 205.067 228.496 205.406L230.92 194.012C229.795 193.756 228.686 193.459 227.59 193.122Z" fill="white" fill-opacity="0.37"/>
<path d="M256.633 192.668L260.235 203.749C261.715 203.247 263.168 202.689 264.592 202.075L259.852 191.433C258.801 191.882 257.728 192.294 256.633 192.668Z" fill="#B185FF"/>
<path d="M242.147 195.182V206.828C243.717 206.809 245.271 206.729 246.808 206.587L245.59 195.01C244.454 195.106 243.306 195.163 242.147 195.182Z" fill="#B185FF"/>
<ellipse cx="240.509" cy="148.914" rx="11.1782" ry="11.1729" fill="#D2BFF6"/>
<defs>
<filter id="filter0_d_147_11889" x="228.936" y="110.652" width="47.662" height="52.1042" filterUnits="userSpaceOnUse" color-interpolation-filters="sRGB">
<feFlood flood-opacity="0" result="BackgroundImageFix"/>
<feColorMatrix in="SourceAlpha" type="matrix" values="0 0 0 0 0 0 0 0 0 0 0 0 0 0 0 0 0 0 127 0" result="hardAlpha"/>
<feOffset/>
<feGaussianBlur stdDeviation="5"/>
<feComposite in2="hardAlpha" operator="out"/>
<feColorMatrix type="matrix" values="0 0 0 0 0.685333 0 0 0 0 0.508333 0 0 0 0 1 0 0 0 1 0"/>
<feBlend mode="normal" in2="BackgroundImageFix" result="effect1_dropShadow_147_11889"/>
<feBlend mode="normal" in="SourceGraphic" in2="effect1_dropShadow_147_11889" result="shape"/>
</filter>
<filter id="filter1_f_147_11889" x="116.78" y="53.1343" width="249" height="161.5" filterUnits="userSpaceOnUse" color-interpolation-filters="sRGB">
<feFlood flood-opacity="0" result="BackgroundImageFix"/>
<feBlend mode="normal" in="SourceGraphic" in2="BackgroundImageFix" result="shape"/>
<feGaussianBlur stdDeviation="25" result="effect1_foregroundBlur_147_11889"/>
</filter>
<filter id="filter2_d_147_11889" x="229.067" y="109.85" width="47.662" height="52.1042" filterUnits="userSpaceOnUse" color-interpolation-filters="sRGB">
<feFlood flood-opacity="0" result="BackgroundImageFix"/>
<feColorMatrix in="SourceAlpha" type="matrix" values="0 0 0 0 0 0 0 0 0 0 0 0 0 0 0 0 0 0 127 0" result="hardAlpha"/>
<feOffset/>
<feGaussianBlur stdDeviation="5"/>
<feComposite in2="hardAlpha" operator="out"/>
<feColorMatrix type="matrix" values="0 0 0 0 0.685333 0 0 0 0 0.508333 0 0 0 0 1 0 0 0 1 0"/>
<feBlend mode="normal" in2="BackgroundImageFix" result="effect1_dropShadow_147_11889"/>
<feBlend mode="normal" in="SourceGraphic" in2="effect1_dropShadow_147_11889" result="shape"/>
</filter>
<linearGradient id="paint0_linear_147_11889" x1="101.723" y1="7.34039" x2="107.805" y2="181.96" gradientUnits="userSpaceOnUse">
<stop stop-color="#A492C9" stop-opacity="0.5"/>
<stop offset="0.355" stop-color="#A492C9" stop-opacity="0.3"/>
<stop offset="0.63" stop-color="#A492C9" stop-opacity="0.0962264"/>
<stop offset="0.885" stop-color="#A492C9" stop-opacity="0"/>
</linearGradient>
<linearGradient id="paint1_linear_147_11889" x1="12.5239" y1="59.6693" x2="81.367" y2="59.6693" gradientUnits="userSpaceOnUse">
<stop stop-color="white" stop-opacity="0"/>
<stop offset="0.5" stop-color="white"/>
<stop offset="1" stop-color="white" stop-opacity="0"/>
</linearGradient>
<clipPath id="clip0_147_11889">
<rect width="172" height="173" fill="white" transform="translate(155.28 62.1343)"/>
</clipPath>
</defs>
</svg>
