<svg width="198" height="261" viewBox="0 0 198 261" fill="none" xmlns="http://www.w3.org/2000/svg">
<path fill-rule="evenodd" clip-rule="evenodd" d="M188.29 191.542C187.599 189.078 186.162 186.88 185.47 184.415C178.808 179.625 173.849 173.601 167.005 168.99C170.53 168.367 173.619 168.451 176.352 169.103C177.942 171.449 179.279 174.018 180.736 176.474C179.518 173.867 177.98 171.109 177.087 168.655C173.624 167.929 169.878 167.735 165.833 168.119C163.992 166.973 162.274 165.641 160.707 164.142C160.119 157.887 159.677 151.119 159.43 143.702C153.458 140.111 147.279 136.737 141.521 132.931C139.08 126.436 137.667 119.598 135.342 112.735C136.999 120.183 139.324 127.639 141.024 135.065C146.349 137.21 151.051 139.784 155.541 142.497C156.654 149.851 157.319 157.266 157.533 164.7C160.313 165.74 162.845 166.926 164.66 168.5C164.31 168.78 163.667 169.015 162.795 169.217C160.597 168.166 158.211 167.051 155.586 165.872C152.812 160.937 151.788 155.501 151.367 149.892C150.941 153.795 151.346 158.464 154.212 165.478L151.435 164.389C150.813 162.691 150.639 161.065 150.973 159.503C149.85 157.386 148.674 155.289 147.038 153.257C145.109 153.664 143.206 153.784 141.341 153.355C140.602 153.875 139.739 154.191 138.839 154.271C137.49 154.344 133.515 146.468 129.952 143.157C127.967 141.319 116.595 143.086 109.117 141.415L96.2313 131.836L94.164 132.593L47.5304 93.8242L34.1252 87.6048L86.3428 132.419L55.4151 126.126C54.0856 125.855 54.2667 126.504 53.7066 126.718C51.8245 127.428 49.6719 127.492 47.4347 127.359C50.1499 128.13 53.405 127.85 56.7536 127.388L61.3508 129.181C70.087 131.473 79.2843 133.356 88.4981 134.031L101.311 145.202C105.024 144.142 108.309 143.299 111.305 144.136C113.993 144.89 116.443 149.206 118.983 149.992C121.698 150.839 125.478 148.518 127.779 149.05C132.489 150.142 135.527 152.463 137.886 155.108C140.873 158.463 143.011 161.413 145.505 163.259C146.929 164.227 148.975 164.59 150.558 165.462C151.587 167.699 151.462 174.097 152.547 175.807C157.73 174.93 162.288 175.513 167.012 175.711C162.481 175.263 158.15 174.347 153.115 175.063C152.189 173.526 151.879 168.592 151.464 165.486C152.775 165.575 153.893 166.006 154.975 166.517L157.272 170.298C159.976 170.601 162.811 170.279 165.799 169.269C170.654 172.336 175.003 175.63 178.619 179.241C180.77 180.943 182.629 182.986 184.121 185.288C185.397 187.194 186.811 189.324 188.29 191.542ZM155.643 166.81L157.457 169.975C159.065 170.081 160.674 169.821 162.276 169.739C160.28 168.545 158.195 167.44 155.641 166.81L155.643 166.81ZM108.64 141.731L103.671 141.966C100.807 138.768 97.7045 135.791 94.3905 133.061L96.324 132.589C100.232 135.704 104.569 138.758 108.64 141.731ZM134.823 151.029C133.376 148.537 131.334 145.579 128.555 144.122C126.232 142.902 118.357 143.433 112.576 143.765C114.915 145.55 117.231 149.395 119.68 149.36C121.919 149.326 125.314 147.735 127.448 148.1C129.907 148.52 132.55 149.589 134.821 151.03L134.823 151.029ZM150.437 164.074C146.363 163.181 142.597 159.443 139.14 154.822C139.742 154.741 140.867 154.628 141.459 154.306C143.343 154.688 144.874 154.37 146.817 154.187C147.966 155.824 149.096 157.925 150.026 159.685C149.996 161.159 150.133 162.631 150.435 164.074L150.437 164.074Z" fill="#FBD9BA"/>
<path fill-rule="evenodd" clip-rule="evenodd" d="M42.0632 169.542C42.7548 167.078 44.1913 164.88 44.8836 162.415C51.5453 157.625 56.5041 151.601 63.3489 146.99C59.8236 146.367 56.7343 146.451 54.0013 147.103C52.4115 149.449 51.0748 152.018 49.6176 154.474C50.8352 151.867 52.3739 149.109 53.266 146.655C56.7295 145.929 60.4759 145.735 64.5208 146.119C66.3615 144.973 68.0791 143.641 69.6462 142.142C70.2347 135.887 70.6762 129.119 70.9232 121.702C76.8953 118.111 83.0744 114.737 88.8325 110.931C91.274 104.436 92.6868 97.5975 95.0119 90.7354C93.3548 98.1834 91.0292 105.639 89.3295 113.065C84.0048 115.21 79.3028 117.784 74.8125 120.497C73.7 127.851 73.0348 135.266 72.8206 142.7C70.0406 143.74 67.5086 144.926 65.6935 146.5C66.0439 146.78 66.6865 147.015 67.5586 147.217C69.7569 146.166 72.1429 145.051 74.7674 143.872C77.5412 138.937 78.565 133.501 78.9863 127.892C79.4127 131.795 79.0071 136.464 76.1418 143.478L78.9188 142.389C79.5404 140.691 79.7144 139.065 79.3809 137.503C80.5035 135.386 81.6799 133.289 83.315 131.257C85.2448 131.664 87.1473 131.784 89.0127 131.355C89.7517 131.875 90.6146 132.191 91.5145 132.271C92.8634 132.344 96.8383 124.468 100.401 121.157C102.387 119.319 113.759 121.086 121.237 119.415L134.122 109.836L136.189 110.593L182.823 71.8242L196.228 65.6048L144.011 110.419L174.938 104.126C176.268 103.855 176.087 104.504 176.647 104.718C178.529 105.428 180.682 105.492 182.919 105.359C180.204 106.13 176.949 105.85 173.6 105.388L169.003 107.181C160.267 109.473 151.069 111.356 141.855 112.031L129.042 123.202C125.33 122.142 122.045 121.299 119.049 122.136C116.361 122.89 113.911 127.206 111.371 127.992C108.655 128.839 104.875 126.518 102.574 127.05C97.8646 128.142 94.8263 130.463 92.4675 133.108C89.4802 136.463 87.3427 139.413 84.8489 141.259C83.4246 142.227 81.379 142.59 79.796 143.462C78.7663 145.699 78.8919 152.097 77.8069 153.807C72.6239 152.93 68.0651 153.513 63.3419 153.711C67.8722 153.263 72.2036 152.347 77.2386 153.063C78.164 151.526 78.4748 146.592 78.8898 143.486C77.5788 143.575 76.4605 144.006 75.378 144.517L73.0817 148.298C70.3777 148.601 67.5425 148.279 64.5547 147.269C59.6993 150.336 55.3503 153.63 51.7342 157.241C49.5831 158.943 47.7246 160.986 46.2322 163.288C44.9568 165.194 43.5429 167.324 42.0632 169.542ZM74.7105 144.81L72.8965 147.975C71.2884 148.081 69.6797 147.821 68.077 147.739C70.0731 146.545 72.1585 145.44 74.7124 144.81L74.7105 144.81ZM121.713 119.731L126.682 119.966C129.547 116.768 132.649 113.791 135.963 111.061L134.029 110.589C130.121 113.704 125.784 116.758 121.713 119.731ZM95.5303 129.029C96.978 126.537 99.0194 123.579 101.798 122.122C104.122 120.902 111.997 121.433 117.777 121.765C115.439 123.55 113.123 127.395 110.673 127.36C108.434 127.326 105.04 125.735 102.905 126.1C100.447 126.52 97.8039 127.589 95.5322 129.03L95.5303 129.029ZM79.9167 142.074C83.9908 141.181 87.7564 137.443 91.2137 132.822C90.6116 132.741 89.4861 132.628 88.8942 132.306C87.0101 132.688 85.4795 132.37 83.5369 132.187C82.3876 133.824 81.258 135.925 80.3273 137.685C80.3579 139.159 80.2208 140.631 79.9186 142.074L79.9167 142.074Z" fill="#FBD9BA"/>
<path d="M136.311 84.0398L75.486 97.5725L123.398 5.10254L56.9894 22.8669L17.1341 130.874H54.4772L10.0254 241.746L136.311 84.0398Z" fill="url(#paint0_linear_115_5530)"/>
<path d="M0.0253906 260.887L50.8408 134.143H13.6381L55.6837 20.1998L130.804 0.102539L82.706 92.9311L145.75 78.9058L0.0253906 260.887ZM22.935 127.663H60.4207L22.3302 222.662L129.18 89.2288L70.5687 102.271L118.295 10.1554L60.6021 25.5913L22.935 127.663Z" fill="url(#paint1_linear_115_5530)"/>
<path d="M11.894 137.861L51.5804 32.1028L54.2708 33.1974L14.5844 138.956L11.894 137.861Z" fill="url(#paint2_linear_115_5530)"/>
<defs>
<linearGradient id="paint0_linear_115_5530" x1="10.0247" y1="123.424" x2="136.312" y2="123.424" gradientUnits="userSpaceOnUse">
<stop stop-color="#FFEB38"/>
<stop offset="1" stop-color="#F58F0A"/>
</linearGradient>
<linearGradient id="paint1_linear_115_5530" x1="0.0253906" y1="130.495" x2="145.751" y2="130.495" gradientUnits="userSpaceOnUse">
<stop stop-color="#F58F0A"/>
<stop offset="1" stop-color="#FFEB38"/>
</linearGradient>
<linearGradient id="paint2_linear_115_5530" x1="12.8514" y1="132.658" x2="54.1794" y2="31.0819" gradientUnits="userSpaceOnUse">
<stop stop-color="white" stop-opacity="0"/>
<stop offset="0.309" stop-color="white"/>
<stop offset="1" stop-color="white" stop-opacity="0"/>
</linearGradient>
</defs>
</svg>
