<svg width="168" height="255" viewBox="0 0 168 255" fill="none" xmlns="http://www.w3.org/2000/svg">
<g style="mix-blend-mode:color-dodge">
<path d="M84.2303 0.600586C48.3142 0.600586 19.2065 29.7111 19.2065 65.6244V143.076H149.26V65.6244C149.26 29.714 120.146 0.600586 84.2303 0.600586ZM123.25 116.772H45.2195V70.2965C45.2195 48.7502 62.6841 31.2856 84.2332 31.2856C105.777 31.2856 123.253 48.7502 123.253 70.2965V116.772H123.25Z" fill="#0A4B46"/>
<path d="M167.528 241.214C167.528 248.553 161.578 254.5 154.242 254.5H14.2173C6.88692 254.5 0.937012 248.55 0.937012 241.214V117.795C0.937012 110.459 6.88692 104.512 14.2173 104.512H154.242C161.578 104.512 167.528 110.459 167.528 117.795V241.214Z" fill="#327C66"/>
<path d="M155.103 232.019C155.103 238.257 150.046 243.311 143.799 243.311H24.6586C18.4121 243.311 13.355 238.254 13.355 232.019V127C13.355 120.759 18.4121 115.702 24.6586 115.702H143.799C150.043 115.702 155.103 120.759 155.103 127V232.019Z" fill="#5B9C8D"/>
<path d="M96.2857 167.634C96.2857 160.974 90.892 155.572 84.2291 155.572C77.5718 155.572 72.1753 160.974 72.1753 167.634C72.1753 172.358 74.9049 176.442 78.8667 178.416L75.6465 203.433H92.8174L89.0523 178.675C93.3108 176.821 96.2857 172.574 96.2857 167.634Z" fill="#061D1F"/>
</g>
<rect x="9.93701" y="253.798" width="63.2758" height="0.98229" fill="url(#paint0_linear_115_5507)"/>
<rect x="24.937" y="104.308" width="63.2758" height="0.98229" fill="url(#paint1_linear_115_5507)"/>
<defs>
<linearGradient id="paint0_linear_115_5507" x1="9.93701" y1="254.289" x2="73.2128" y2="254.289" gradientUnits="userSpaceOnUse">
<stop stop-color="white" stop-opacity="0"/>
<stop offset="0.5" stop-color="white"/>
<stop offset="1" stop-color="white" stop-opacity="0"/>
</linearGradient>
<linearGradient id="paint1_linear_115_5507" x1="24.937" y1="104.799" x2="88.2128" y2="104.799" gradientUnits="userSpaceOnUse">
<stop stop-color="white" stop-opacity="0"/>
<stop offset="0.5" stop-color="white"/>
<stop offset="1" stop-color="white" stop-opacity="0"/>
</linearGradient>
</defs>
</svg>
